<?xml version="1.0" standalone="no"?>
<!DOCTYPE svg PUBLIC "-//W3C//DTD SVG 20010904//EN"
 "http://www.w3.org/TR/2001/REC-SVG-20010904/DTD/svg10.dtd">
<svg version="1.0" xmlns="http://www.w3.org/2000/svg"
 width="531.000000pt" height="201.000000pt" viewBox="0 0 531.000000 201.000000"
 preserveAspectRatio="xMidYMid meet">

<g transform="translate(0.000000,201.000000) scale(0.100000,-0.100000)"
fill="#000000" stroke="none">
<path d="M580 1772 c-148 -39 -267 -151 -312 -295 -16 -53 -18 -100 -18 -461
0 -437 2 -452 57 -552 41 -73 119 -146 198 -185 l70 -34 414 -3 c266 -2 431 1
463 7 162 35 290 159 334 324 17 64 20 804 3 877 -25 111 -113 227 -216 282
-96 53 -143 58 -553 57 -320 0 -385 -3 -440 -17z m899 -308 c21 -26 21 -37 21
-451 0 -258 -4 -431 -10 -443 -19 -36 -61 -40 -465 -40 -418 0 -449 3 -466 47
-5 13 -9 209 -9 442 0 408 1 419 21 445 l20 26 434 0 434 0 20 -26z"/>
<path d="M1027 1283 c-4 -3 -7 -23 -7 -44 0 -38 1 -39 54 -54 30 -9 72 -25 93
-35 l38 -19 28 31 c15 18 27 38 27 45 0 18 -68 50 -142 68 -71 17 -82 18 -91
8z"/>
<path d="M861 1260 c-71 -26 -83 -37 -70 -62 9 -17 17 -19 52 -13 23 5 65 11
92 14 49 6 50 7 53 44 3 37 3 37 -35 37 -21 -1 -62 -9 -92 -20z"/>
<path d="M703 1160 c-42 -40 -83 -94 -83 -110 0 -7 20 6 44 28 24 22 58 48 75
57 21 10 31 22 29 33 -5 27 -31 24 -65 -8z"/>
<path d="M1266 1157 c-15 -19 -26 -38 -26 -43 0 -6 18 -28 41 -49 22 -22 49
-56 59 -76 26 -50 39 -59 80 -50 32 7 35 10 34 39 -1 18 -17 55 -35 84 -32 50
-106 128 -121 128 -4 0 -18 -15 -32 -33z"/>
<path d="M1105 899 c-66 -28 -129 -54 -140 -59 -48 -19 -58 -70 -14 -70 21 0
236 127 274 162 29 27 12 22 -120 -33z"/>
<path d="M3138 1488 c-2 -36 -7 -44 -25 -46 -16 -2 -23 -10 -23 -25 0 -13 9
-26 23 -32 21 -9 22 -17 27 -133 5 -115 7 -125 29 -143 28 -23 131 -28 131 -6
0 23 -15 34 -52 41 -20 4 -39 14 -42 22 -3 9 -6 60 -6 114 0 105 3 110 56 110
19 0 24 5 24 25 0 23 -4 25 -40 25 l-40 0 0 45 c0 43 -1 45 -29 45 -28 0 -30
-3 -33 -42z"/>
<path d="M2190 1265 l0 -175 30 0 30 0 0 119 c0 130 3 137 60 161 59 24 65 11
68 -144 l3 -136 34 0 35 0 0 119 c0 118 0 120 27 140 38 31 71 37 91 17 13
-13 17 -43 20 -146 l4 -130 30 0 29 0 -3 151 -3 151 -28 24 c-36 31 -75 30
-121 -1 -42 -29 -52 -30 -63 -11 -24 40 -105 48 -147 15 l-27 -21 -6 21 c-4
15 -13 21 -34 21 l-29 0 0 -175z"/>
<path d="M2815 1424 c-66 -33 -96 -119 -76 -215 17 -80 52 -111 130 -117 71
-5 118 14 146 61 29 47 28 184 -1 224 -42 58 -135 80 -199 47z m130 -69 c41
-40 35 -168 -9 -197 -23 -16 -93 -8 -111 12 -20 22 -31 103 -21 145 16 65 94
88 141 40z"/>
<path d="M3430 1423 c-57 -30 -80 -74 -80 -157 0 -120 48 -176 150 -176 99 0
150 58 150 170 0 110 -46 169 -137 177 -33 3 -59 -1 -83 -14z m124 -62 c25
-27 37 -80 30 -130 -9 -59 -33 -81 -89 -81 -60 0 -80 29 -80 116 0 52 4 67 24
88 30 32 89 36 115 7z"/>
<path d="M3740 1265 l0 -175 35 0 35 0 0 125 0 125 33 20 c41 25 73 25 87 1 5
-11 10 -76 10 -145 l0 -126 35 0 35 0 0 119 0 119 31 26 c36 31 74 34 89 7 5
-11 10 -76 10 -145 l0 -126 31 0 30 0 -3 156 c-3 150 -4 157 -27 175 -37 30
-75 25 -147 -21 -18 -11 -24 -9 -47 14 -31 31 -81 35 -129 10 -29 -15 -32 -15
-43 0 -7 9 -24 16 -39 16 l-26 0 0 -175z"/>
<path d="M4350 1424 c-41 -18 -53 -34 -38 -51 12 -15 44 -17 53 -3 9 14 109
12 123 -2 7 -7 12 -24 12 -39 0 -26 -3 -28 -57 -34 -75 -8 -109 -22 -133 -53
-50 -63 -2 -152 82 -152 24 0 56 7 73 16 27 14 31 14 41 0 6 -9 23 -16 38 -16
l26 0 0 125 c0 150 -12 188 -64 210 -45 19 -111 18 -156 -1z m150 -214 c0 -48
-21 -62 -88 -58 -42 3 -47 6 -50 29 -5 42 29 62 116 68 19 1 22 -4 22 -39z"/>
<path d="M4650 1430 c0 -6 19 -42 43 -78 24 -37 46 -72 50 -78 3 -6 -18 -50
-48 -98 l-55 -87 37 3 c33 3 41 9 68 55 16 29 35 53 40 53 6 0 25 -25 43 -55
30 -50 36 -55 68 -55 19 0 34 2 34 5 0 3 -22 41 -50 85 -27 44 -50 82 -50 85
0 3 21 37 46 76 63 99 64 101 23 97 -28 -3 -38 -11 -66 -58 -18 -30 -37 -55
-43 -55 -5 0 -24 25 -42 55 -28 46 -38 55 -66 58 -19 2 -32 -1 -32 -8z"/>
<path d="M2197 974 c-4 -4 -7 -115 -7 -246 0 -205 2 -239 15 -245 9 -3 24 2
33 10 16 15 23 15 70 1 49 -14 55 -14 89 3 59 29 77 63 81 152 5 96 -15 146
-70 176 -38 20 -47 19 -140 -11 -15 -5 -18 4 -20 77 -3 76 -5 84 -23 87 -12 2
-24 0 -28 -4z m190 -216 c42 -46 37 -174 -7 -198 -24 -13 -86 -13 -111 0 -16
9 -19 22 -19 95 l0 85 33 20 c42 26 79 25 104 -2z"/>
<path d="M3520 886 c0 -39 -3 -45 -22 -48 -32 -4 -35 -40 -6 -53 22 -9 23 -17
28 -131 5 -133 11 -146 66 -164 35 -12 94 -5 94 10 0 25 -15 40 -40 40 -51 0
-60 20 -60 135 0 110 2 115 56 115 19 0 24 5 24 25 0 23 -4 25 -40 25 l-40 0
0 45 c0 43 -1 45 -30 45 -29 0 -30 -2 -30 -44z"/>
<path d="M2570 666 c0 -166 1 -175 20 -181 11 -3 24 -3 30 0 6 4 10 56 10 126
l0 119 33 20 c17 11 44 20 59 20 30 0 52 28 42 54 -9 22 -56 20 -87 -4 -14
-11 -30 -20 -36 -20 -6 0 -11 9 -11 20 0 16 -7 20 -30 20 l-30 0 0 -174z"/>
<path d="M2887 819 c-74 -40 -101 -167 -54 -259 18 -38 30 -48 72 -63 43 -16
57 -17 101 -7 29 6 60 20 70 31 17 19 17 20 -2 34 -10 8 -26 11 -34 8 -8 -4
-37 -8 -65 -10 -61 -5 -83 9 -91 59 l-7 37 109 3 109 3 3 27 c6 48 -16 106
-50 129 -43 31 -113 35 -161 8z m126 -56 c8 -10 17 -27 19 -38 3 -18 -3 -20
-74 -23 -87 -3 -95 4 -57 52 25 32 86 37 112 9z"/>
<path d="M3241 824 c-45 -19 -60 -41 -61 -87 0 -51 31 -80 109 -103 75 -23 96
-48 61 -76 -27 -22 -59 -23 -105 -4 -27 12 -37 12 -51 2 -27 -20 -10 -42 46
-61 97 -32 190 12 190 91 0 49 -34 81 -115 107 -72 23 -90 42 -65 72 16 19 80
19 106 0 18 -12 24 -12 43 1 18 13 20 18 9 31 -18 22 -71 43 -105 43 -15 -1
-43 -7 -62 -16z"/>
</g>
</svg>
